<?xml version="1.0" encoding="UTF-8" standalone="no"?>
<!-- Created with Inkscape (http://www.inkscape.org/) -->

<svg
   xmlns:dc="http://purl.org/dc/elements/1.1/"
   xmlns:cc="http://creativecommons.org/ns#"
   xmlns:rdf="http://www.w3.org/1999/02/22-rdf-syntax-ns#"
   xmlns:svg="http://www.w3.org/2000/svg"
   xmlns="http://www.w3.org/2000/svg"
   xmlns:sodipodi="http://sodipodi.sourceforge.net/DTD/sodipodi-0.dtd"
   xmlns:inkscape="http://www.inkscape.org/namespaces/inkscape"
   width="95mm"
   height="95mm"
   viewBox="0 0 95 95"
   version="1.1"
   id="svg14465"
   inkscape:version="0.92.4 (5da689c313, 2019-01-14)"
   sodipodi:docname="Jinoo_Jaune_Orange_hexa.svg">
  <defs
     id="defs14459" />
  <sodipodi:namedview
     id="base"
     pagecolor="#ffffff"
     bordercolor="#666666"
     borderopacity="1.0"
     inkscape:pageopacity="0.0"
     inkscape:pageshadow="2"
     inkscape:zoom="0.98994949"
     inkscape:cx="235.85021"
     inkscape:cy="560"
     inkscape:document-units="mm"
     inkscape:current-layer="layer1"
     showgrid="false"
     inkscape:window-width="2560"
     inkscape:window-height="1369"
     inkscape:window-x="1912"
     inkscape:window-y="-8"
     inkscape:window-maximized="1" />
  <metadata
     id="metadata14462">
    <rdf:RDF>
      <cc:Work
         rdf:about="">
        <dc:format>image/svg+xml</dc:format>
        <dc:type
           rdf:resource="http://purl.org/dc/dcmitype/StillImage" />
        <dc:title></dc:title>
      </cc:Work>
    </rdf:RDF>
  </metadata>
  <g
     inkscape:label="Calque 1"
     inkscape:groupmode="layer"
     id="layer1"
     transform="translate(0,-202)">
    <g
       id="g15257"
       transform="matrix(1,0,0,0.99393198,103.97322,142.3204)">
      <path
         transform="matrix(0.49005728,0,0,0.50966224,-26.587796,55.813661)"
         inkscape:transform-center-y="-3.579029"
         inkscape:transform-center-x="-0.10587903"
         d="m -12.294406,43.895767 c 55.769467,41.269405 51.397371,27.401673 29.381548,93.194533 -22.0158243,65.79287 -10.1778792,57.34939 -79.553874,56.74221 -69.375998,-0.60718 -57.687648,8.0422 -78.548548,-58.12592 -20.8609,-66.168123 -25.47504,-52.379039 31.00821,-92.666006 56.483246,-40.2869677 41.943197,-40.4142225 97.712664,0.855183 z"
         inkscape:randomized="0"
         inkscape:rounded="0.71"
         inkscape:flatsided="true"
         sodipodi:arg2="-0.30540747"
         sodipodi:arg1="-0.933726"
         sodipodi:r2="67.247543"
         sodipodi:r1="83.122543"
         sodipodi:cy="110.71315"
         sodipodi:cx="-61.739269"
         sodipodi:sides="5"
         id="path15111"
         style="opacity:1;fill:#000080;fill-opacity:1;stroke:none;stroke-width:0.5;stroke-linecap:round;stroke-miterlimit:4;stroke-dasharray:none;stroke-opacity:1"
         sodipodi:type="star" />
      <g
         transform="translate(-0.42431359,-0.75859482)"
         id="g15226">
        <rect
           transform="matrix(0,-1,-1,0,0,0)"
           style="fill:#f2771d;fill-opacity:1;stroke:none;stroke-width:0.24467483;stroke-miterlimit:4;stroke-dasharray:none;stroke-opacity:1"
           id="rect1323"
           width="30.454205"
           height="3.131156"
           x="-127.27725"
           y="61.991226" />
        <rect
           style="fill:#f2771d;fill-opacity:1;stroke:none;stroke-width:0.12233742;stroke-miterlimit:4;stroke-dasharray:none;stroke-opacity:1"
           id="rect1325"
           width="7.8278899"
           height="3.0454202"
           x="-69.819107"
           y="96.823044" />
        <rect
           y="57.201008"
           x="-127.24429"
           height="3.131156"
           width="34.98727"
           id="rect1327"
           style="fill:#ffcc00;fill-opacity:1;stroke:none;stroke-width:0.2622532;stroke-miterlimit:4;stroke-dasharray:none;stroke-opacity:1"
           transform="matrix(0,-1,-1,0,0,0)" />
        <rect
           y="92.257034"
           x="-72.856781"
           height="3.0454202"
           width="15.65578"
           id="rect1329"
           style="fill:#ffcc00;fill-opacity:1;stroke:none;stroke-width:0.17301123;stroke-miterlimit:4;stroke-dasharray:none;stroke-opacity:1" />
        <rect
           y="-50.669048"
           x="-127.27726"
           height="3.131156"
           width="30.454205"
           id="rect1331"
           style="fill:#f2771d;fill-opacity:1;stroke:none;stroke-width:0.24467483;stroke-miterlimit:4;stroke-dasharray:none;stroke-opacity:1"
           transform="rotate(-90)" />
        <rect
           y="96.823044"
           x="42.84116"
           height="3.0454202"
           width="7.8278899"
           id="rect1333"
           style="fill:#f2771d;fill-opacity:1;stroke:none;stroke-width:0.12233742;stroke-miterlimit:4;stroke-dasharray:none;stroke-opacity:1"
           transform="scale(-1,1)" />
        <rect
           transform="rotate(-90)"
           style="fill:#ffcc00;fill-opacity:1;stroke:none;stroke-width:0.2622532;stroke-miterlimit:4;stroke-dasharray:none;stroke-opacity:1"
           id="rect1335"
           width="34.98727"
           height="3.131156"
           x="-127.2443"
           y="-55.459282" />
        <rect
           style="fill:#ffcc00;fill-opacity:1;stroke:none;stroke-width:0.17301123;stroke-miterlimit:4;stroke-dasharray:none;stroke-opacity:1"
           id="rect1337"
           width="15.65578"
           height="3.0454202"
           x="39.803497"
           y="92.257034"
           transform="scale(-1,1)" />
        <path
           style="fill:#ffcc00;fill-opacity:1;stroke:none;stroke-width:0.50700366;stroke-miterlimit:4;stroke-dasharray:none;stroke-opacity:1"
           d="m -88.503557,126.70257 c -0.06547,2.04074 0.335069,4.0918 1.305512,6.01336 3.622048,8.5427 16.190645,12.37007 23.699597,6.26201 3.931604,-2.81162 6.203863,-7.5652 6.294299,-12.27537 h -3.127999 c -0.02302,3.26451 -1.310971,6.55435 -3.714015,8.85006 -5.547369,5.86272 -16.466557,3.63611 -20.028192,-3.28627 -0.997233,-1.74102 -1.388354,-3.65614 -1.291224,-5.56379 z"
           id="path1339"
           inkscape:connector-curvature="0" />
        <path
           inkscape:connector-curvature="0"
           id="path1341"
           d="m -24.123207,126.70257 c 0.06547,2.04074 -0.335069,4.0918 -1.305522,6.01336 -3.622038,8.5427 -16.190592,12.37007 -23.699502,6.26201 -3.931583,-2.81162 -6.203831,-7.5652 -6.294256,-12.27537 h 3.127977 c 0.02302,3.26451 1.310961,6.55435 3.713984,8.85006 5.547348,5.86272 16.466472,3.63611 20.028128,-3.28627 0.997212,-1.74102 1.388344,-3.65614 1.291203,-5.56379 z"
           style="fill:#ffcc00;fill-opacity:1;stroke:none;stroke-width:0.50700366;stroke-miterlimit:4;stroke-dasharray:none;stroke-opacity:1" />
        <path
           style="fill:#f2771d;fill-opacity:1;stroke:none;stroke-width:0.29388213;stroke-miterlimit:4;stroke-dasharray:none;stroke-opacity:1"
           d="m -83.892807,127.00866 a 10.959046,10.658971 0 0 0 10.950023,10.48495 10.959046,10.658971 0 0 0 10.952705,-10.48495 h -3.132307 c -0.08152,2.34479 -1.185487,4.67559 -3.205403,6.04431 -3.909925,2.95173 -10.316867,0.95471 -11.905482,-3.49665 -0.363401,-0.8227 -0.532287,-1.68576 -0.536395,-2.54766 z"
           id="path1343"
           inkscape:connector-curvature="0" />
        <path
           inkscape:connector-curvature="0"
           id="path1345"
           d="m -28.729194,127.00866 a 10.959046,10.658971 0 0 1 -10.949981,10.48495 10.959046,10.658971 0 0 1 -10.952652,-10.48495 h 3.132297 c 0.08152,2.34479 1.185486,4.67559 3.205382,6.04431 3.909914,2.95173 10.316814,0.95471 11.905428,-3.49665 0.363402,-0.8227 0.532288,-1.68576 0.536385,-2.54766 z"
           style="fill:#f2771d;fill-opacity:1;stroke:none;stroke-width:0.29388213;stroke-miterlimit:4;stroke-dasharray:none;stroke-opacity:1" />
        <path
           inkscape:connector-curvature="0"
           id="path1347"
           d="m -56.287731,96.37682 a 8.7870571,9.5638894 0 0 0 -8.786934,9.56377 8.7870571,9.5638894 0 0 0 5.927803,9.03156 v -1.72484 a 6.9738547,8.0196067 0 0 1 -4.114746,-7.30672 6.9738547,8.0196067 0 0 1 6.973877,-8.01965 6.9738547,8.0196067 0 0 1 6.973876,8.01965 6.9738547,8.0196067 0 0 1 -4.114207,7.30331 v 1.72904 a 8.7870571,9.5638894 0 0 0 5.927528,-9.03235 8.7870571,9.5638894 0 0 0 -8.787197,-9.56377 z"
           clip-path="none"
           style="fill:#ffffff;fill-opacity:1;stroke:none;stroke-width:0.29684073;stroke-miterlimit:4;stroke-dasharray:none;stroke-opacity:1" />
        <rect
           y="90.40921"
           x="-70.223007"
           height="1.6915432"
           width="27.870806"
           id="rect1349"
           style="fill:#000080;fill-opacity:1;stroke:none;stroke-width:0.1720401;stroke-miterlimit:4;stroke-dasharray:none;stroke-opacity:1" />
        <rect
           y="55.563393"
           x="86.139641"
           height="1.63342"
           width="27.107662"
           id="rect1351"
           style="fill:#000080;fill-opacity:1;stroke:none;stroke-width:0.1667279;stroke-miterlimit:4;stroke-dasharray:none;stroke-opacity:1"
           transform="rotate(90)" />
        <path
           inkscape:connector-curvature="0"
           id="path1353"
           d="m -56.287731,67.31751 a 8.7870571,9.5638894 0 0 0 -8.786934,9.56377 8.7870571,9.5638894 0 0 0 8.786934,9.56403 8.7870571,9.5638894 0 0 0 8.787197,-9.56403 8.7870571,9.5638894 0 0 0 -8.787197,-9.56377 z m 0,1.54412 a 6.9738547,8.0196067 0 0 1 6.973876,8.01965 6.9738547,8.0196067 0 0 1 -6.973876,8.01963 6.9738547,8.0196067 0 0 1 -6.973877,-8.01963 6.9738547,8.0196067 0 0 1 6.973877,-8.01965 z"
           style="fill:#ffffff;fill-opacity:1;stroke:none;stroke-width:0.29684073;stroke-miterlimit:4;stroke-dasharray:none;stroke-opacity:1" />
        <rect
           transform="scale(-1,1)"
           y="87.751175"
           x="42.840851"
           height="3.0454202"
           width="26.978041"
           id="rect1355"
           style="fill:#ffcc00;fill-opacity:1;stroke:none;stroke-width:0.22711307;stroke-miterlimit:4;stroke-dasharray:none;stroke-opacity:1" />
        <g
           style="fill:#f2771d;fill-opacity:1"
           transform="matrix(0.11549224,0,0,0.11229597,-61.837286,70.79834)"
           id="g1647">
          <path
             style="fill:#f2771d;fill-opacity:1"
             inkscape:connector-curvature="0"
             d="m 39.5,42.4 2.8,-2.8 C 40.9,38.1 40,36.1 40,33.9 c 0,-2.2 0.9,-4.2 2.3,-5.7 l -2.8,-2.8 c -2.2,2.2 -3.5,5.2 -3.5,8.5 0,3.3 1.3,6.3 3.5,8.5 z"
             id="path1633" />
          <path
             style="fill:#f2771d;fill-opacity:1"
             inkscape:connector-curvature="0"
             d="m 33.9,48 2.8,-2.8 C 33.8,42.3 32,38.3 32,33.9 c 0,-4.4 1.8,-8.4 4.7,-11.3 l -2.8,-2.8 c -3.7,3.6 -5.9,8.6 -5.9,14.1 0,5.5 2.2,10.5 5.9,14.1 z"
             id="path1635" />
          <path
             style="fill:#f2771d;fill-opacity:1"
             inkscape:connector-curvature="0"
             d="m 31,50.9 c -4.3,-4.3 -7,-10.3 -7,-17 0,-6.7 2.7,-12.6 7,-17 L 28.2,14.1 C 23.1,19.2 20,26.2 20,33.9 c 0,7.7 3.1,14.7 8.2,19.8 z"
             id="path1637" />
          <path
             style="fill:#f2771d;fill-opacity:1"
             inkscape:connector-curvature="0"
             d="m 56.5,42.4 c 2.2,-2.2 3.5,-5.2 3.5,-8.5 0,-3.3 -1.3,-6.3 -3.5,-8.5 l -2.8,2.8 c 1.4,1.4 2.3,3.4 2.3,5.7 0,2.3 -0.9,4.2 -2.3,5.7 z"
             id="path1639" />
          <path
             style="fill:#f2771d;fill-opacity:1"
             inkscape:connector-curvature="0"
             d="M 59.3,45.2 62.1,48 C 65.8,44.4 68,39.4 68,33.9 68,28.4 65.8,23.4 62.1,19.8 l -2.8,2.8 c 2.9,2.9 4.7,6.9 4.7,11.3 0,4.4 -1.8,8.4 -4.7,11.3 z"
             id="path1641" />
          <path
             style="fill:#f2771d;fill-opacity:1"
             inkscape:connector-curvature="0"
             d="m 65,50.9 2.8,2.8 C 72.9,48.6 76,41.6 76,33.9 76,26.2 72.9,19.2 67.8,14.1 L 65,16.9 c 4.3,4.3 7,10.3 7,17 0,6.7 -2.7,12.6 -7,17 z"
             id="path1643" />
          <path
             style="fill:#f2771d;fill-opacity:1"
             inkscape:connector-curvature="0"
             d="m 74,73.9 c -1.1,0 -2,-0.9 -2,-2 0,-1.1 0.9,-2 2,-2 1.1,0 2,0.9 2,2 0,1.1 -0.9,2 -2,2 z m -10,0 c -1.1,0 -2,-0.9 -2,-2 0,-1.1 0.9,-2 2,-2 1.1,0 2,0.9 2,2 0,1.1 -0.9,2 -2,2 z m -10,0 c -1.1,0 -2,-0.9 -2,-2 0,-1.1 0.9,-2 2,-2 1.1,0 2,0.9 2,2 0,1.1 -0.9,2 -2,2 z m -10,0 c -1.1,0 -2,-0.9 -2,-2 0,-1.1 0.9,-2 2,-2 1.1,0 2,0.9 2,2 0,1.1 -0.9,2 -2,2 z m -20,2 c -2.2,0 -4,-1.8 -4,-4 0,-2.2 1.8,-4 4,-4 2.2,0 4,1.8 4,4 0,2.2 -1.8,4 -4,4 z m 54,-14 H 50 V 37.3 c 1.2,-0.7 2,-2 2,-3.4 0,-2.2 -1.8,-4 -4,-4 -2.2,0 -4,1.8 -4,4 0,1.5 0.8,2.8 2,3.4 V 61.9 H 18 c -2.2,0 -4,1.8 -4,4 v 12 c 0,2.2 1.8,4 4,4 h 60 c 2.2,0 4,-1.8 4,-4 v -12 c 0,-2.2 -1.8,-4 -4,-4 z"
             id="path1645" />
        </g>
        <text
           xml:space="preserve"
           style="font-style:normal;font-weight:normal;font-size:9.83560467px;line-height:1.25;font-family:sans-serif;letter-spacing:0px;word-spacing:0px;fill:#ffcc00;fill-opacity:1;stroke:none;stroke-width:0.2458901"
           x="-65.187408"
           y="171.80365"
           id="text494"
           transform="scale(1.1348386,0.88118256)"><tspan
             sodipodi:role="line"
             id="tspan492"
             x="-65.187408"
             y="171.80365"
             style="fill:#ffcc00;fill-opacity:1;stroke-width:0.2458901">JINOO</tspan></text>
      </g>
    </g>
  </g>
</svg>
